<svg width="38" height="38" viewBox="0 0 38 38" fill="none" xmlns="http://www.w3.org/2000/svg">
<circle cx="8" cy="30" r="7" stroke="#008BAD" stroke-width="2"/>
<circle cx="8" cy="30" r="3.5" stroke="#CCE8EF"/>
<rect x="23" y="14" width="4" height="20" fill="#CCE8EF"/>
<rect x="22" y="34" width="6" height="2" rx="1" fill="#008BAD"/>
<path d="M25 38C26.1046 38 27 37.1046 27 36H23C23 37.1046 23.8954 38 25 38Z" fill="#CCE8EF"/>
<path d="M17 3C17 2.44772 17.4477 2 18 2L32 2C32.5523 2 33 2.44772 33 3V13C33 13.5523 32.5523 14 32 14H18C17.4477 14 17 13.5523 17 13V3Z" fill="#008BAD"/>
<path fill-rule="evenodd" clip-rule="evenodd" d="M15 1C14.4477 1 14 1.44772 14 2V3.08535C13.4174 3.29127 13 3.84689 13 4.5V11.5C13 12.1531 13.4174 12.7087 14 12.9146V14C14 14.5523 14.4477 15 15 15C15.5523 15 16 14.5523 16 14V11.5V4.5V2C16 1.44772 15.5523 1 15 1Z" fill="#008BAD"/>
<path fill-rule="evenodd" clip-rule="evenodd" d="M35 1C34.4477 1 34 1.44772 34 2V4.5V11.5V14C34 14.5523 34.4477 15 35 15C35.5523 15 36 14.5523 36 14V12.9146C36.5826 12.7087 37 12.1531 37 11.5V4.5C37 3.84689 36.5826 3.29127 36 3.08535V2C36 1.44772 35.5523 1 35 1Z" fill="#008BAD"/>
</svg>
