<svg width="24" height="25" viewBox="0 0 24 25" fill="none" xmlns="http://www.w3.org/2000/svg">
<path fill-rule="evenodd" clip-rule="evenodd" d="M12.1021 11.7727C13.5115 11.9191 14.9209 12.0654 16.6536 11.9691C21.3482 11.708 24.1917 9.3042 23.99 5.71109C23.7842 2.05527 20.0013 -0.196958 16.2159 0.0135831C10.0472 0.356509 5.51078 5.75968 5.00004 11.9353C5.83769 11.7395 6.71952 11.6226 7.55107 11.5764C9.28373 11.4801 10.6929 11.6264 12.1021 11.7727ZM0.00956347 19.7648C0.204388 23.116 3.78837 25.1805 7.37455 24.9876C13.2185 24.6731 17.5162 19.7202 18 14.0592C17.2063 14.2387 16.3711 14.346 15.5833 14.3883C13.9419 14.4766 12.6067 14.3424 11.2715 14.2083C9.93632 14.0742 8.60112 13.9401 6.95951 14.0284C2.51249 14.2677 -0.181843 16.4711 0.00956347 19.7648Z" fill="black"/>
</svg>
