<svg width="31" height="31" viewBox="0 0 31 31" fill="none" xmlns="http://www.w3.org/2000/svg">
<path d="M1.00003 20.5V21.5C1.55231 21.5 2.00003 21.0523 2.00003 20.5H1.00003ZM1 20.5V19.5C0.734779 19.5 0.480422 19.6054 0.292884 19.7929C0.105347 19.9804 -6.55651e-06 20.2348 0 20.5L1 20.5ZM1.00003 21.698H2.00003V21.6979L1.00003 21.698ZM1.00003 24H2.96235e-05C2.96235e-05 24.5523 0.447745 25 1.00003 25V24ZM1.00009 24L2.00009 24C2.00007 23.4477 1.55236 23 1.00009 23V24ZM1.0002 28.7L0.000202596 28.7L1.0002 28.7ZM2.68226 29.4313L3.36432 30.1626H3.36432L2.68226 29.4313ZM8.50564 24V23C8.25247 23 8.00872 23.096 7.82358 23.2687L8.50564 24ZM2.00003 6C2.00003 3.79086 3.79089 2 6.00003 2V0C2.68632 0 2.96235e-05 2.68629 2.96235e-05 6H2.00003ZM2.00003 20.5V6H2.96235e-05V20.5H2.00003ZM1 21.5H1.00003V19.5H1V21.5ZM2.00003 21.6979L2 20.5L0 20.5L2.96235e-05 21.698L2.00003 21.6979ZM2.00003 24V21.698H2.96235e-05V24H2.00003ZM1.00009 23H1.00003V25H1.00009V23ZM2.0002 28.7L2.00009 24L8.64863e-05 24L0.000202596 28.7L2.0002 28.7ZM2.0002 28.7H2.0002L0.000202596 28.7C0.00024581 30.4484 2.08572 31.3551 3.36432 30.1626L2.0002 28.7ZM7.82358 23.2687L2.0002 28.7L3.36432 30.1626L9.18769 24.7313L7.82358 23.2687ZM25 23H8.50564V25H25V23ZM29 19C29 21.2091 27.2092 23 25 23V25C28.3137 25 31 22.3137 31 19H29ZM29 6V19H31V6H29ZM25 2C27.2092 2 29 3.79086 29 6H31C31 2.68629 28.3137 0 25 0V2ZM6.00003 2H25V0H6.00003V2Z" fill="#008BAD"/>
<circle opacity="0.5" cx="22.5" cy="12.5" r="1.5" fill="#008BAD"/>
<circle opacity="0.5" cx="15.5" cy="12.5" r="1.5" fill="#008BAD"/>
<circle opacity="0.5" cx="8.5" cy="12.5" r="1.5" fill="#008BAD"/>
</svg>
