<svg width="44" height="44" viewBox="0 0 44 44" fill="none" xmlns="http://www.w3.org/2000/svg">
<path fill-rule="evenodd" clip-rule="evenodd" d="M23.1966 21.8855L34.0583 11.0454C35.8594 9.19802 35.8594 6.30213 34.0583 4.45475C32.2073 2.55744 29.2056 2.50751 27.3545 4.35489L12.8963 18.7844C11.0452 20.6318 11.0452 23.6276 12.8963 25.4749C13.4339 26.0115 14.0686 26.3922 14.7439 26.6171L27.4912 39.3756C29.3109 41.1969 32.2616 41.1477 34.0812 39.2772C35.8517 37.456 35.8517 34.601 34.0812 32.7798L23.1966 21.8855ZM4.67203 3C7.22935 3 9.34406 5.11658 9.34406 7.67617V12.8938C9.34406 13.9275 8.75391 14.8627 8.16376 15.601C5.26218 19.2435 5.213 24.4611 8.11458 28.1036L8.0654 28.0544C8.70473 28.8912 9.34406 30.2694 9.34406 31.3031V36.3238C9.34406 38.8834 7.22935 41 4.67203 41C2.11471 41 0 38.8834 0 36.3238V7.67617C0 5.11658 2.11471 3 4.67203 3Z" fill="#939BA1" fill-opacity="0.4"/>
</svg>
