<svg width="148" height="56" viewBox="0 0 148 56" fill="none" xmlns="http://www.w3.org/2000/svg">
<path fill-rule="evenodd" clip-rule="evenodd" d="M27.9781 0C12.5262 0 0 12.5362 0 28C0 43.464 12.5262 56 27.9781 56C43.4301 56 55.9563 43.464 55.9563 28C55.9563 12.5362 43.4301 0 27.9781 0Z" fill="#008BAD"/>
<path fill-rule="evenodd" clip-rule="evenodd" d="M27.9727 26.7727C29.3787 26.9191 30.7846 27.0654 32.5132 26.9691C37.1966 26.708 40.0337 24.3042 39.8323 20.7111C39.6271 17.0553 35.8529 14.803 32.0764 15.0136C25.9221 15.3565 21.3965 20.7597 20.8868 26.9353C21.7226 26.7395 22.6023 26.6226 23.4319 26.5764C25.1606 26.4801 26.5666 26.6264 27.9727 26.7727ZM15.9081 34.7648C16.1024 38.116 19.678 40.1806 23.2558 39.9875C29.0862 39.6731 33.3737 34.7202 33.8564 29.0592C33.0647 29.2387 32.2313 29.346 31.4454 29.3883C29.8076 29.4766 28.4756 29.3425 27.1435 29.2083C25.8114 29.0742 24.4794 28.9401 22.8418 29.0284C18.405 29.2677 15.7171 31.4711 15.9081 34.7648Z" fill="white"/>
<path d="M66.845 32.6494H70.8923C70.8923 33.335 71.0857 33.8271 71.4724 34.126C71.8591 34.4248 72.3557 34.5742 72.9622 34.5742C73.4631 34.5742 73.8718 34.4819 74.1882 34.2974C74.5134 34.104 74.676 33.792 74.676 33.3613C74.676 33.1064 74.6057 32.8999 74.4651 32.7417C74.3333 32.5747 74.1267 32.4297 73.8455 32.3066C73.5642 32.1748 73.2039 32.043 72.7644 31.9111C72.325 31.7793 71.7976 31.6123 71.1824 31.4102C70.6287 31.2344 70.1057 31.0542 69.6135 30.8696C69.1301 30.6763 68.7039 30.439 68.3347 30.1577C67.9656 29.8765 67.6755 29.5337 67.4646 29.1294C67.2625 28.7251 67.1614 28.2241 67.1614 27.6265C67.1614 26.9409 67.2976 26.3477 67.5701 25.8467C67.8425 25.3457 68.2249 24.9326 68.717 24.6074C69.2092 24.2822 69.7981 24.0405 70.4836 23.8823C71.1692 23.7153 71.925 23.6318 72.7512 23.6318C73.762 23.6318 74.6321 23.7461 75.3616 23.9746C76.0911 24.2031 76.6887 24.5151 77.1545 24.9106C77.6204 25.3062 77.9631 25.772 78.1829 26.3081C78.4114 26.8442 78.5256 27.4199 78.5256 28.0352H74.4519C74.4519 27.499 74.3113 27.0815 74.03 26.7827C73.7576 26.4839 73.3401 26.3345 72.7776 26.3345C72.3469 26.3345 71.9778 26.4312 71.6702 26.6245C71.3625 26.8091 71.2087 27.0903 71.2087 27.4683C71.2087 27.7231 71.2791 27.9297 71.4197 28.0879C71.5691 28.2373 71.7844 28.3735 72.0657 28.4966C72.3469 28.6196 72.6941 28.7471 73.1072 28.8789C73.5203 29.002 73.9949 29.1514 74.531 29.3271C75.1111 29.4854 75.6516 29.6611 76.1526 29.8545C76.6536 30.0479 77.093 30.2852 77.4709 30.5664C77.8577 30.8389 78.1609 31.186 78.3806 31.6079C78.6091 32.021 78.7234 32.5483 78.7234 33.1899C78.7234 33.9458 78.5652 34.5918 78.2488 35.1279C77.9324 35.6553 77.5061 36.0859 76.97 36.4199C76.4426 36.7539 75.8274 36.9912 75.1243 37.1318C74.4211 37.2812 73.6829 37.356 72.9094 37.356C70.9846 37.356 69.4905 36.9561 68.427 36.1562C67.3723 35.3477 66.845 34.1787 66.845 32.6494ZM79.7517 27.0596V23.9878H81.7952V20.125H85.9084V23.9878H88.8748V27.0596H85.9084V31.7134C85.9084 32.1968 85.9524 32.5835 86.0403 32.8735C86.1282 33.1548 86.2512 33.3789 86.4094 33.5459C86.5764 33.7041 86.7742 33.8096 87.0027 33.8623C87.24 33.9062 87.5037 33.9282 87.7937 33.9282C87.9695 33.9282 88.1936 33.9238 88.4661 33.915C88.7385 33.8975 88.9758 33.8711 89.178 33.8359V37C88.8704 37.0527 88.4836 37.1011 88.0178 37.145C87.5608 37.189 87.0203 37.2109 86.3962 37.2109C85.9128 37.2109 85.4031 37.1758 84.8669 37.1055C84.3308 37.0352 83.8342 36.8506 83.3772 36.5518C82.9202 36.2529 82.5422 35.7959 82.2434 35.1807C81.9446 34.5566 81.7952 33.7041 81.7952 32.623V27.0596H79.7517ZM90.3645 30.4873C90.3645 29.5117 90.5183 28.6064 90.8259 27.7715C91.1423 26.9365 91.5774 26.2202 92.1311 25.6226C92.6936 25.0161 93.3484 24.5371 94.0955 24.1855C94.8425 23.834 95.6511 23.6582 96.5212 23.6582C97.4968 23.6582 98.3406 23.8647 99.0525 24.2778C99.7732 24.6909 100.314 25.2139 100.674 25.8467V23.9878H104.801V37H100.674V35.1675C100.349 35.7651 99.8259 36.2749 99.1052 36.6968C98.3845 37.1187 97.5232 37.3296 96.5212 37.3296C95.6599 37.3296 94.8513 37.1538 94.0955 36.8022C93.3484 36.4507 92.6936 35.9717 92.1311 35.3652C91.5774 34.7588 91.1423 34.0381 90.8259 33.2031C90.5183 32.3682 90.3645 31.4629 90.3645 30.4873ZM94.4646 30.4873C94.4646 30.9355 94.5393 31.3662 94.6887 31.7793C94.8469 32.1836 95.0579 32.5352 95.3215 32.834C95.594 33.124 95.9192 33.3613 96.2971 33.5459C96.675 33.7217 97.0969 33.8096 97.5627 33.8096C98.0286 33.8096 98.4504 33.7217 98.8284 33.5459C99.2151 33.3613 99.5403 33.124 99.804 32.834C100.076 32.5352 100.287 32.1836 100.437 31.7793C100.595 31.375 100.674 30.9443 100.674 30.4873C100.674 30.0391 100.595 29.6172 100.437 29.2217C100.287 28.8262 100.076 28.4746 99.804 28.167C99.5403 27.8594 99.2195 27.6177 98.8416 27.4419C98.4636 27.2661 98.0374 27.1782 97.5627 27.1782C97.0969 27.1782 96.675 27.2661 96.2971 27.4419C95.9192 27.6177 95.594 27.8594 95.3215 28.167C95.0579 28.4746 94.8469 28.8262 94.6887 29.2217C94.5393 29.6172 94.4646 30.0391 94.4646 30.4873ZM107.015 27.0596V23.9878H109.059V20.125H113.172V23.9878H116.138V27.0596H113.172V31.7134C113.172 32.1968 113.216 32.5835 113.304 32.8735C113.392 33.1548 113.515 33.3789 113.673 33.5459C113.84 33.7041 114.038 33.8096 114.266 33.8623C114.504 33.9062 114.767 33.9282 115.057 33.9282C115.233 33.9282 115.457 33.9238 115.73 33.915C116.002 33.8975 116.24 33.8711 116.442 33.8359V37C116.134 37.0527 115.747 37.1011 115.281 37.145C114.824 37.189 114.284 37.2109 113.66 37.2109C113.177 37.2109 112.667 37.1758 112.131 37.1055C111.594 37.0352 111.098 36.8506 110.641 36.5518C110.184 36.2529 109.806 35.7959 109.507 35.1807C109.208 34.5566 109.059 33.7041 109.059 32.623V27.0596H107.015ZM118.485 31.7134V23.9878H122.585V30.6587C122.585 31.5903 122.752 32.3506 123.086 32.9395C123.42 33.5195 124.018 33.8096 124.879 33.8096C125.74 33.8096 126.373 33.5151 126.778 32.9263C127.191 32.3286 127.397 31.5244 127.397 30.5137V23.9878H131.524V37H127.397V35.1411C127.037 35.8267 126.488 36.3628 125.749 36.7495C125.011 37.1362 124.128 37.3296 123.099 37.3296C122.203 37.3296 121.465 37.189 120.885 36.9077C120.313 36.6265 119.847 36.2705 119.487 35.8398C119.074 35.3389 118.802 34.7588 118.67 34.0996C118.547 33.4404 118.485 32.645 118.485 31.7134ZM134.187 32.6494H138.234C138.234 33.335 138.427 33.8271 138.814 34.126C139.201 34.4248 139.698 34.5742 140.304 34.5742C140.805 34.5742 141.214 34.4819 141.53 34.2974C141.855 34.104 142.018 33.792 142.018 33.3613C142.018 33.1064 141.948 32.8999 141.807 32.7417C141.675 32.5747 141.469 32.4297 141.187 32.3066C140.906 32.1748 140.546 32.043 140.106 31.9111C139.667 31.7793 139.139 31.6123 138.524 31.4102C137.97 31.2344 137.448 31.0542 136.955 30.8696C136.472 30.6763 136.046 30.439 135.677 30.1577C135.307 29.8765 135.017 29.5337 134.806 29.1294C134.604 28.7251 134.503 28.2241 134.503 27.6265C134.503 26.9409 134.639 26.3477 134.912 25.8467C135.184 25.3457 135.567 24.9326 136.059 24.6074C136.551 24.2822 137.14 24.0405 137.825 23.8823C138.511 23.7153 139.267 23.6318 140.093 23.6318C141.104 23.6318 141.974 23.7461 142.703 23.9746C143.433 24.2031 144.031 24.5151 144.496 24.9106C144.962 25.3062 145.305 25.772 145.525 26.3081C145.753 26.8442 145.867 27.4199 145.867 28.0352H141.794C141.794 27.499 141.653 27.0815 141.372 26.7827C141.099 26.4839 140.682 26.3345 140.119 26.3345C139.689 26.3345 139.32 26.4312 139.012 26.6245C138.704 26.8091 138.551 27.0903 138.551 27.4683C138.551 27.7231 138.621 27.9297 138.761 28.0879C138.911 28.2373 139.126 28.3735 139.407 28.4966C139.689 28.6196 140.036 28.7471 140.449 28.8789C140.862 29.002 141.337 29.1514 141.873 29.3271C142.453 29.4854 142.993 29.6611 143.494 29.8545C143.995 30.0479 144.435 30.2852 144.813 30.5664C145.199 30.8389 145.503 31.186 145.722 31.6079C145.951 32.021 146.065 32.5483 146.065 33.1899C146.065 33.9458 145.907 34.5918 145.591 35.1279C145.274 35.6553 144.848 36.0859 144.312 36.4199C143.784 36.7539 143.169 36.9912 142.466 37.1318C141.763 37.2812 141.025 37.356 140.251 37.356C138.326 37.356 136.832 36.9561 135.769 36.1562C134.714 35.3477 134.187 34.1787 134.187 32.6494Z" fill="black"/>
</svg>
