<svg width="55" height="44" viewBox="0 0 55 44" fill="none" xmlns="http://www.w3.org/2000/svg">
<path d="M19.4118 44L0 30.351V0H38.8235V30.351L19.4118 44Z" fill="#D4D7D9"/>
<path d="M44.0001 20.1645L28.2167 31.4799L30.1524 32.1668L29.1473 32.8536L19.3571 39.6862L15.9696 37.3002L14.6667 36.3603L30.5991 20.0199L31.8275 18.7546H29.7801L39.9798 7.76465" fill="white"/>
<path d="M44.0001 20.1645L28.2167 31.4799L30.1524 32.1668L29.1473 32.8536L19.3571 39.6862L15.9696 37.3002L14.6667 36.3603L30.5991 20.0199L31.8275 18.7546H29.7801L39.9798 7.76465" stroke="white" stroke-width="2.772"/>
<path d="M37.3145 13.8037L31.2236 21.7818L33.5292 21.2623L28.4707 27.6076L40.5491 18.9245" fill="#D4D7D9"/>
<path d="M27.1766 14.6667L26.2529 12.9732L24.157 12.7175L25.6845 11.3755L25.2938 9.49023L27.1766 10.3849L29.0594 9.49023L28.7042 11.3755L30.1962 12.7175L28.1002 12.9732L27.1766 14.6667Z" fill="white"/>
<path d="M38.8235 23.2943L45.7254 20.7061H41.3589" fill="white"/>
<path d="M15.2586 36.2355L4.31372 28.4555V12.0272V3.45117H35.3725V12.9318" stroke="white" stroke-width="2.772"/>
<path d="M19.843 6.03906V25.0195" stroke="white" stroke-width="2.772"/>
<path opacity="0.5" d="M43.5687 19.843C47.6057 19.843 50.902 16.7406 50.902 12.941C50.902 9.14146 47.6057 6.03906 43.5687 6.03906C39.5316 6.03906 36.2354 9.14146 36.2354 12.941C36.2354 16.7406 39.5316 19.843 43.5687 19.843Z" fill="#D4D7D9"/>
<path d="M50.902 12.941C50.902 16.7406 47.6057 19.843 43.5687 19.843C39.5316 19.843 36.2354 16.7406 36.2354 12.941C36.2354 9.14146 39.5316 6.03906 43.5687 6.03906C47.6057 6.03906 50.902 9.14146 50.902 12.941Z" stroke="#D4D7D9" stroke-width="6.574"/>
<path d="M47.9494 15.7562C49.6141 14.4456 49.5794 11.5412 47.88 9.27429C46.1807 7.00739 43.4409 6.22815 41.7762 7.53869C40.1115 8.84924 40.1462 11.7537 41.8456 14.0206C43.5449 16.2875 46.2847 17.0667 47.9494 15.7562Z" fill="white"/>
<path d="M41.4823 14.6214L44.6868 15.529L46.5883 12.9072L44.5459 10.3525L41.4119 11.4618L41.4823 14.6214Z" fill="#D4D7D9"/>
<path d="M39.7733 7.96006C39.6979 8.03003 39.6226 8.06502 39.5472 8.1C38.4169 8.90469 37.6256 9.98927 37.2489 11.2488L37.0981 11.7736L40.3384 10.689L40.2631 7.57521L39.7733 7.96006ZM37.0981 14.1876L37.2865 14.7124C37.3242 14.7824 37.3619 14.8874 37.3619 14.9573C37.588 15.5871 37.9271 16.1119 38.3415 16.6367C38.756 17.1615 39.2835 17.6163 39.8863 18.0012L40.3761 18.316L40.3008 15.0973L37.0981 14.1876ZM47.5726 17.6863L48.0247 17.3364L44.7091 16.4268L42.8252 18.9808H43.3904C43.4657 18.9808 43.5787 18.9808 43.6541 18.9808C45.1235 18.9458 46.4423 18.491 47.5726 17.6863ZM49.4942 15.3772L49.6826 14.8524C49.7202 14.7824 49.7579 14.6774 49.7579 14.6075C50.1724 13.348 50.1347 12.0185 49.6072 10.794L49.3811 10.2692L47.4219 12.9281L49.4942 15.3772ZM47.874 8.41488L47.4219 8.1C47.3465 8.03003 47.2712 7.99504 47.1958 7.96006C45.9901 7.22534 44.6337 6.84049 43.2396 6.91047L42.6368 6.94545L44.7468 9.49946L47.874 8.41488Z" fill="#D4D7D9"/>
<path d="M15.5294 12.9973V10.8792L14.1127 9.49023H10.0078L8.62744 10.8792V19.3517L10.0078 20.7059H14.1127L15.5294 19.3517V17.1988H13.4588V18.7614H10.6617V11.4695H13.4588V12.9973H15.5294Z" fill="white"/>
</svg>
