<svg width="43" height="28" viewBox="0 0 43 28" fill="none" xmlns="http://www.w3.org/2000/svg">
<g opacity="0.4">
<circle cx="30" cy="6" r="5" fill="#008BAD"/>
<path d="M30 12C24.1955 12 18.0749 13.9023 17.1265 18.8594C16.9619 19.7195 17.3957 20.5532 18.1895 20.9233C19.8416 21.6936 23.4011 22.8333 30 22.8333C36.5989 22.8333 40.1584 21.6936 41.8105 20.9233C42.6043 20.5532 43.0381 19.7195 42.8735 18.8594C41.9251 13.9023 35.8045 12 30 12Z" fill="#008BAD"/>
</g>
<path d="M17 12C13.5187 12 9.87756 12.5747 6.94666 13.9539C4.00184 15.3396 1.6719 17.5971 1.12187 20.963C0.909895 22.2601 1.55721 23.5247 2.74313 24.1038L3.16996 23.2297L2.74313 24.1038C4.72333 25.0708 9.00356 26.5 17 26.5C24.9964 26.5 29.2767 25.0708 31.2569 24.1038C32.4428 23.5247 33.0901 22.2601 32.8781 20.963C32.3281 17.5971 29.9982 15.3396 27.0533 13.9539C24.1224 12.5747 20.4813 12 17 12Z" fill="#008BAD" stroke="white" stroke-width="2"/>
<circle cx="17" cy="6" r="6" fill="#008BAD"/>
</svg>
